<?xml version="1.0" encoding="UTF-8" standalone="yes"?>
<svg version="1.2" width="415px" height="415px" fill-rule="evenodd" baseProfile="tiny-ps" xmlns="http://www.w3.org/2000/svg">
  <title>bimi-svg-tiny-12-ps</title>
  <g>
    <path fill="#000000" d="M -0.5,-0.5 C 137.833,-0.5 276.167,-0.5 414.5,-0.5C 414.5,137.833 414.5,276.167 414.5,414.5C 276.167,414.5 137.833,414.5 -0.5,414.5C -0.5,276.167 -0.5,137.833 -0.5,-0.5 Z"/>
  </g>
  <g>
    <path fill="#b5b5b5" d="M 233.5,65.5 C 221.167,65.5 208.833,65.5 196.5,65.5C 196.5,65.1667 196.5,64.8333 196.5,64.5C 206.992,63.3412 217.659,63.1745 228.5,64C 230.382,64.1981 232.048,64.6981 233.5,65.5 Z"/>
  </g>
  <g>
    <path fill="#969696" d="M 196.5,64.5 C 196.5,64.8333 196.5,65.1667 196.5,65.5C 194.194,65.9926 191.861,66.3259 189.5,66.5C 191.515,65.0762 193.848,64.4095 196.5,64.5 Z"/>
  </g>
  <g>
    <path fill="#fafafa" d="M 196.5,65.5 C 208.833,65.5 221.167,65.5 233.5,65.5C 238.225,66.6306 242.892,67.964 247.5,69.5C 247.973,70.9063 248.973,71.573 250.5,71.5C 265.109,77.472 277.109,86.8053 286.5,99.5C 286.427,101.027 287.094,102.027 288.5,102.5C 290.326,104.147 291.66,106.147 292.5,108.5C 292.427,110.027 293.094,111.027 294.5,111.5C 297.284,115.405 299.284,119.738 300.5,124.5C 300.286,126.144 300.62,127.644 301.5,129C 292.173,129.5 282.839,129.666 273.5,129.5C 265.717,113.718 253.717,102.384 237.5,95.5C 233.728,92.7997 229.395,91.4664 224.5,91.5C 216.677,90.3439 208.677,90.1772 200.5,91C 199.263,91.2321 198.263,91.7321 197.5,92.5C 180.914,96.295 167.914,105.295 158.5,119.5C 157.094,119.973 156.427,120.973 156.5,122.5C 155.094,122.973 154.427,123.973 154.5,125.5C 154.672,126.492 154.338,127.158 153.5,127.5C 151.926,129.102 151.259,131.102 151.5,133.5C 150.883,133.611 150.383,133.944 150,134.5C 147.766,145.009 146.933,155.675 147.5,166.5C 147.32,170.286 148.32,173.619 150.5,176.5C 150.595,179.692 149.929,182.692 148.5,185.5C 147.094,185.973 146.427,186.973 146.5,188.5C 144.25,191.999 142.25,195.665 140.5,199.5C 139.094,199.973 138.427,200.973 138.5,202.5C 137.326,203.514 136.66,204.847 136.5,206.5C 135.391,206.443 134.391,206.11 133.5,205.5C 129.12,198.353 125.787,190.686 123.5,182.5C 123.59,179.848 122.924,177.515 121.5,175.5C 118.864,162.915 118.864,150.248 121.5,137.5C 123.277,134.495 124.277,131.162 124.5,127.5C 125.41,122.849 127.076,118.515 129.5,114.5C 130.906,114.027 131.573,113.027 131.5,111.5C 131.328,110.508 131.662,109.842 132.5,109.5C 133.906,109.027 134.573,108.027 134.5,106.5C 135.906,106.027 136.573,105.027 136.5,103.5C 136.738,101.596 137.738,100.262 139.5,99.5C 140.906,99.0269 141.573,98.0269 141.5,96.5C 144.167,93.1667 147.167,90.1667 150.5,87.5C 152.749,86.9202 154.415,85.5869 155.5,83.5C 158.275,80.3954 161.608,78.0621 165.5,76.5C 167.848,76.4077 169.514,75.4077 170.5,73.5C 175.207,72.6401 179.541,70.9734 183.5,68.5C 185.403,68.2041 187.07,67.5375 188.5,66.5C 188.833,66.5 189.167,66.5 189.5,66.5C 191.861,66.3259 194.194,65.9926 196.5,65.5 Z"/>
  </g>
  <g>
    <path fill="#8f8f8f" d="M 188.5,66.5 C 187.07,67.5375 185.403,68.2041 183.5,68.5C 184.635,66.7868 186.302,66.1201 188.5,66.5 Z"/>
  </g>
  <g>
    <path fill="#828282" d="M 247.5,69.5 C 249.027,69.427 250.027,70.0937 250.5,71.5C 248.973,71.573 247.973,70.9063 247.5,69.5 Z"/>
  </g>
  <g>
    <path fill="#bababa" d="M 183.5,68.5 C 179.541,70.9734 175.207,72.6401 170.5,73.5C 174.237,70.4733 178.57,68.8067 183.5,68.5 Z"/>
  </g>
  <g>
    <path fill="#b1b1b1" d="M 170.5,73.5 C 169.514,75.4077 167.848,76.4077 165.5,76.5C 166.659,74.7497 168.326,73.7497 170.5,73.5 Z"/>
  </g>
  <g>
    <path fill="#bebebe" d="M 155.5,83.5 C 154.415,85.5869 152.749,86.9202 150.5,87.5C 151.585,85.4131 153.251,84.0798 155.5,83.5 Z"/>
  </g>
  <g>
    <path fill="#5a5a5a" d="M 224.5,91.5 C 215.467,91.2841 206.467,91.6175 197.5,92.5C 198.263,91.7321 199.263,91.2321 200.5,91C 208.677,90.1772 216.677,90.3439 224.5,91.5 Z"/>
  </g>
  <g>
    <path fill="#787878" d="M 224.5,91.5 C 229.395,91.4664 233.728,92.7997 237.5,95.5C 233.02,94.3023 228.687,92.969 224.5,91.5 Z"/>
  </g>
  <g>
    <path fill="#9c9c9c" d="M 141.5,96.5 C 141.573,98.0269 140.906,99.0269 139.5,99.5C 139.427,97.9731 140.094,96.9731 141.5,96.5 Z"/>
  </g>
  <g>
    <path fill="#a3a3a3" d="M 286.5,99.5 C 287.906,99.9731 288.573,100.973 288.5,102.5C 287.094,102.027 286.427,101.027 286.5,99.5 Z"/>
  </g>
  <g>
    <path fill="#fafafa" d="M 215.5,104.5 C 217.341,106.849 218.674,109.515 219.5,112.5C 219.427,114.027 220.094,115.027 221.5,115.5C 222.674,116.514 223.34,117.847 223.5,119.5C 223.427,121.027 224.094,122.027 225.5,122.5C 227.341,124.849 228.674,127.515 229.5,130.5C 229.427,132.027 230.094,133.027 231.5,133.5C 234.084,137.666 236.417,142 238.5,146.5C 238.427,148.027 239.094,149.027 240.5,149.5C 241.674,150.514 242.34,151.847 242.5,153.5C 242.427,155.027 243.094,156.027 244.5,156.5C 248.085,162.668 251.418,169.001 254.5,175.5C 255.219,177.764 255.552,180.097 255.5,182.5C 250.995,190.504 244.662,196.671 236.5,201C 235.216,201.684 234.049,201.517 233,200.5C 231.729,197.617 230.229,194.95 228.5,192.5C 228.573,190.973 227.906,189.973 226.5,189.5C 221.227,178.908 215.56,168.575 209.5,158.5C 209.573,156.973 208.906,155.973 207.5,155.5C 206.674,152.515 205.341,149.849 203.5,147.5C 203.573,145.973 202.906,144.973 201.5,144.5C 200.453,140.739 198.619,137.406 196,134.5C 195.115,131.462 195.615,128.795 197.5,126.5C 199.408,125.514 200.408,123.848 200.5,121.5C 200.66,119.847 201.326,118.514 202.5,117.5C 203.906,117.027 204.573,116.027 204.5,114.5C 204.5,114.167 204.5,113.833 204.5,113.5C 205.906,113.027 206.573,112.027 206.5,110.5C 206.328,109.508 206.662,108.842 207.5,108.5C 208.376,108.631 209.043,108.298 209.5,107.5C 209.981,102.619 211.981,101.619 215.5,104.5 Z"/>
  </g>
  <g>
    <path fill="#a8a8a8" d="M 136.5,103.5 C 136.573,105.027 135.906,106.027 134.5,106.5C 134.427,104.973 135.094,103.973 136.5,103.5 Z"/>
  </g>
  <g>
    <path fill="#bebebe" d="M 215.5,104.5 C 211.981,101.619 209.981,102.619 209.5,107.5C 209.043,108.298 208.376,108.631 207.5,108.5C 208.172,105.657 209.505,103.157 211.5,101C 213.841,100.832 215.174,101.999 215.5,104.5 Z"/>
  </g>
  <g>
    <path fill="#a4a4a4" d="M 134.5,106.5 C 134.573,108.027 133.906,109.027 132.5,109.5C 132.427,107.973 133.094,106.973 134.5,106.5 Z"/>
  </g>
  <g>
    <path fill="#a0a0a0" d="M 292.5,108.5 C 293.906,108.973 294.573,109.973 294.5,111.5C 293.094,111.027 292.427,110.027 292.5,108.5 Z"/>
  </g>
  <g>
    <path fill="#818181" d="M 206.5,110.5 C 206.573,112.027 205.906,113.027 204.5,113.5C 204.427,111.973 205.094,110.973 206.5,110.5 Z"/>
  </g>
  <g>
    <path fill="#8b8b8b" d="M 131.5,111.5 C 131.573,113.027 130.906,114.027 129.5,114.5C 129.427,112.973 130.094,111.973 131.5,111.5 Z"/>
  </g>
  <g>
    <path fill="#9e9e9e" d="M 219.5,112.5 C 220.906,112.973 221.573,113.973 221.5,115.5C 220.094,115.027 219.427,114.027 219.5,112.5 Z"/>
  </g>
  <g>
    <path fill="#a4a4a4" d="M 204.5,114.5 C 204.573,116.027 203.906,117.027 202.5,117.5C 202.427,115.973 203.094,114.973 204.5,114.5 Z"/>
  </g>
  <g>
    <path fill="#525252" d="M 158.5,119.5 C 158.573,121.027 157.906,122.027 156.5,122.5C 156.427,120.973 157.094,119.973 158.5,119.5 Z"/>
  </g>
  <g>
    <path fill="#8e8e8e" d="M 223.5,119.5 C 224.906,119.973 225.573,120.973 225.5,122.5C 224.094,122.027 223.427,121.027 223.5,119.5 Z"/>
  </g>
  <g>
    <path fill="#696969" d="M 156.5,122.5 C 156.573,124.027 155.906,125.027 154.5,125.5C 154.427,123.973 155.094,122.973 156.5,122.5 Z"/>
  </g>
  <g>
    <path fill="#b7b7b7" d="M 200.5,121.5 C 200.408,123.848 199.408,125.514 197.5,126.5C 197.75,124.326 198.75,122.659 200.5,121.5 Z"/>
  </g>
  <g>
    <path fill="#d6d6d6" d="M 300.5,124.5 C 301.738,126.214 302.405,128.214 302.5,130.5C 292.652,130.827 282.986,130.494 273.5,129.5C 282.839,129.666 292.173,129.5 301.5,129C 300.62,127.644 300.286,126.144 300.5,124.5 Z"/>
  </g>
  <g>
    <path fill="#414141" d="M 153.5,127.5 C 153.741,129.898 153.074,131.898 151.5,133.5C 151.259,131.102 151.926,129.102 153.5,127.5 Z"/>
  </g>
  <g>
    <path fill="#919191" d="M 229.5,130.5 C 230.906,130.973 231.573,131.973 231.5,133.5C 230.094,133.027 229.427,132.027 229.5,130.5 Z"/>
  </g>
  <g>
    <path fill="#9e9e9e" d="M 124.5,127.5 C 124.277,131.162 123.277,134.495 121.5,137.5C 121.723,133.838 122.723,130.505 124.5,127.5 Z"/>
  </g>
  <g>
    <path fill="#5e5e5e" d="M 201.5,144.5 C 202.906,144.973 203.573,145.973 203.5,147.5C 202.094,147.027 201.427,146.027 201.5,144.5 Z"/>
  </g>
  <g>
    <path fill="#919191" d="M 238.5,146.5 C 239.906,146.973 240.573,147.973 240.5,149.5C 239.094,149.027 238.427,148.027 238.5,146.5 Z"/>
  </g>
  <g>
    <path fill="#fafafa" d="M 187.5,149.5 C 187.427,151.027 188.094,152.027 189.5,152.5C 192.025,156.217 194.025,160.217 195.5,164.5C 195.427,166.027 196.094,167.027 197.5,167.5C 199.008,169.181 200.008,171.181 200.5,173.5C 200.427,175.027 201.094,176.027 202.5,176.5C 203.613,177.946 203.78,179.613 203,181.5C 200.381,184.406 198.547,187.739 197.5,191.5C 195.75,192.659 194.75,194.326 194.5,196.5C 192.992,198.181 191.992,200.181 191.5,202.5C 190.094,202.973 189.427,203.973 189.5,205.5C 187.608,208.276 185.941,211.276 184.5,214.5C 185.605,215.892 186.939,217.059 188.5,218C 200.291,221.115 212.291,222.282 224.5,221.5C 230.077,221.197 235.077,219.53 239.5,216.5C 247.49,212.502 254.823,207.502 261.5,201.5C 263.587,200.415 264.92,198.749 265.5,196.5C 266.906,196.027 267.573,195.027 267.5,193.5C 268.906,193.027 269.573,192.027 269.5,190.5C 269.84,188.321 270.84,186.488 272.5,185C 281.827,184.5 291.161,184.334 300.5,184.5C 300.326,186.861 299.993,189.194 299.5,191.5C 298.094,191.973 297.427,192.973 297.5,194.5C 295.895,197.378 294.561,200.378 293.5,203.5C 292.094,203.973 291.427,204.973 291.5,206.5C 289.6,208.619 287.934,210.953 286.5,213.5C 285.094,213.973 284.427,214.973 284.5,216.5C 275.229,226.448 264.562,234.448 252.5,240.5C 248.851,241.267 245.518,242.6 242.5,244.5C 226.094,249.767 209.428,250.767 192.5,247.5C 190.898,245.926 188.898,245.259 186.5,245.5C 184.901,245.768 183.568,245.434 182.5,244.5C 180.824,242.166 178.491,241.166 175.5,241.5C 173.883,240.962 172.216,240.629 170.5,240.5C 169.094,240.973 168.427,241.973 168.5,243.5C 167.326,244.514 166.66,245.847 166.5,247.5C 165.094,247.973 164.427,248.973 164.5,250.5C 162.642,252.883 161.308,255.55 160.5,258.5C 159.094,258.973 158.427,259.973 158.5,261.5C 157.326,262.514 156.66,263.847 156.5,265.5C 155.094,265.973 154.427,266.973 154.5,268.5C 152.659,270.849 151.326,273.515 150.5,276.5C 149.094,276.973 148.427,277.973 148.5,279.5C 147.275,280.937 146.275,282.604 145.5,284.5C 133.852,285.499 122.186,285.832 110.5,285.5C 110.232,283.901 110.566,282.568 111.5,281.5C 112.906,281.027 113.573,280.027 113.5,278.5C 113.66,276.847 114.326,275.514 115.5,274.5C 117.931,272.954 119.264,270.621 119.5,267.5C 119.328,266.508 119.662,265.842 120.5,265.5C 122.408,264.514 123.408,262.848 123.5,260.5C 123.66,258.847 124.326,257.514 125.5,256.5C 127.408,255.514 128.408,253.848 128.5,251.5C 128.992,249.181 129.992,247.181 131.5,245.5C 132.906,245.027 133.573,244.027 133.5,242.5C 133.992,240.181 134.992,238.181 136.5,236.5C 137.906,236.027 138.573,235.027 138.5,233.5C 138.5,233.167 138.5,232.833 138.5,232.5C 139.906,232.027 140.573,231.027 140.5,229.5C 140.328,228.508 140.662,227.842 141.5,227.5C 143.408,226.514 144.408,224.848 144.5,222.5C 144.66,220.847 145.326,219.514 146.5,218.5C 148.408,217.514 149.408,215.848 149.5,213.5C 149.5,213.167 149.5,212.833 149.5,212.5C 150.906,212.027 151.573,211.027 151.5,209.5C 153.408,208.514 154.408,206.848 154.5,204.5C 155.326,201.515 156.659,198.849 158.5,196.5C 159.906,196.027 160.573,195.027 160.5,193.5C 160.66,191.847 161.326,190.514 162.5,189.5C 164.408,188.514 165.408,186.848 165.5,184.5C 165.992,182.181 166.992,180.181 168.5,178.5C 169.906,178.027 170.573,177.027 170.5,175.5C 170.66,173.847 171.326,172.514 172.5,171.5C 174.931,169.954 176.264,167.621 176.5,164.5C 176.66,162.847 177.326,161.514 178.5,160.5C 179.906,160.027 180.573,159.027 180.5,157.5C 180.66,155.847 181.326,154.514 182.5,153.5C 183.906,153.027 184.573,152.027 184.5,150.5C 185.053,148.448 186.053,148.115 187.5,149.5 Z"/>
  </g>
  <g>
    <path fill="#777777" d="M 187.5,149.5 C 188.906,149.973 189.573,150.973 189.5,152.5C 188.094,152.027 187.427,151.027 187.5,149.5 Z"/>
  </g>
  <g>
    <path fill="#a0a0a0" d="M 184.5,150.5 C 184.573,152.027 183.906,153.027 182.5,153.5C 182.427,151.973 183.094,150.973 184.5,150.5 Z"/>
  </g>
  <g>
    <path fill="#7d7d7d" d="M 242.5,153.5 C 243.906,153.973 244.573,154.973 244.5,156.5C 243.094,156.027 242.427,155.027 242.5,153.5 Z"/>
  </g>
  <g>
    <path fill="#5e5e5e" d="M 207.5,155.5 C 208.906,155.973 209.573,156.973 209.5,158.5C 208.094,158.027 207.427,157.027 207.5,155.5 Z"/>
  </g>
  <g>
    <path fill="#919191" d="M 180.5,157.5 C 180.573,159.027 179.906,160.027 178.5,160.5C 178.427,158.973 179.094,157.973 180.5,157.5 Z"/>
  </g>
  <g>
    <path fill="#9f9f9f" d="M 195.5,164.5 C 196.906,164.973 197.573,165.973 197.5,167.5C 196.094,167.027 195.427,166.027 195.5,164.5 Z"/>
  </g>
  <g>
    <path fill="#b1b1b1" d="M 176.5,164.5 C 176.264,167.621 174.931,169.954 172.5,171.5C 173.079,168.669 174.412,166.336 176.5,164.5 Z"/>
  </g>
  <g>
    <path fill="#898989" d="M 147.5,166.5 C 148.87,169.619 149.87,172.952 150.5,176.5C 148.32,173.619 147.32,170.286 147.5,166.5 Z"/>
  </g>
  <g>
    <path fill="#939393" d="M 200.5,173.5 C 201.906,173.973 202.573,174.973 202.5,176.5C 201.094,176.027 200.427,175.027 200.5,173.5 Z"/>
  </g>
  <g>
    <path fill="#979797" d="M 170.5,175.5 C 170.573,177.027 169.906,178.027 168.5,178.5C 168.427,176.973 169.094,175.973 170.5,175.5 Z"/>
  </g>
  <g>
    <path fill="#aaaaaa" d="M 254.5,175.5 C 257.68,177.635 258.014,179.968 255.5,182.5C 255.552,180.097 255.219,177.764 254.5,175.5 Z"/>
  </g>
  <g>
    <path fill="#5d5d5d" d="M 121.5,175.5 C 122.924,177.515 123.59,179.848 123.5,182.5C 121.837,180.562 121.171,178.228 121.5,175.5 Z"/>
  </g>
  <g>
    <path fill="#5d5d5d" d="M 148.5,185.5 C 148.573,187.027 147.906,188.027 146.5,188.5C 146.427,186.973 147.094,185.973 148.5,185.5 Z"/>
  </g>
  <g>
    <path fill="#afafaf" d="M 165.5,184.5 C 165.408,186.848 164.408,188.514 162.5,189.5C 162.75,187.326 163.75,185.659 165.5,184.5 Z"/>
  </g>
  <g>
    <path fill="#6b6b6b" d="M 226.5,189.5 C 227.906,189.973 228.573,190.973 228.5,192.5C 227.094,192.027 226.427,191.027 226.5,189.5 Z"/>
  </g>
  <g>
    <path fill="#999999" d="M 269.5,190.5 C 269.573,192.027 268.906,193.027 267.5,193.5C 267.427,191.973 268.094,190.973 269.5,190.5 Z"/>
  </g>
  <g>
    <path fill="#797979" d="M 299.5,191.5 C 299.573,193.027 298.906,194.027 297.5,194.5C 297.427,192.973 298.094,191.973 299.5,191.5 Z"/>
  </g>
  <g>
    <path fill="#8d8d8d" d="M 160.5,193.5 C 160.573,195.027 159.906,196.027 158.5,196.5C 158.427,194.973 159.094,193.973 160.5,193.5 Z"/>
  </g>
  <g>
    <path fill="#434343" d="M 197.5,191.5 C 197.408,193.848 196.408,195.514 194.5,196.5C 194.75,194.326 195.75,192.659 197.5,191.5 Z"/>
  </g>
  <g>
    <path fill="#9f9f9f" d="M 267.5,193.5 C 267.573,195.027 266.906,196.027 265.5,196.5C 265.427,194.973 266.094,193.973 267.5,193.5 Z"/>
  </g>
  <g>
    <path fill="#a9a9a9" d="M 265.5,196.5 C 264.92,198.749 263.587,200.415 261.5,201.5C 262.08,199.251 263.413,197.585 265.5,196.5 Z"/>
  </g>
  <g>
    <path fill="#696969" d="M 140.5,199.5 C 140.573,201.027 139.906,202.027 138.5,202.5C 138.427,200.973 139.094,199.973 140.5,199.5 Z"/>
  </g>
  <g>
    <path fill="#606060" d="M 191.5,202.5 C 191.573,204.027 190.906,205.027 189.5,205.5C 189.427,203.973 190.094,202.973 191.5,202.5 Z"/>
  </g>
  <g>
    <path fill="#5f5f5f" d="M 293.5,203.5 C 293.573,205.027 292.906,206.027 291.5,206.5C 291.427,204.973 292.094,203.973 293.5,203.5 Z"/>
  </g>
  <g>
    <path fill="#565656" d="M 133.5,205.5 C 134.391,206.11 135.391,206.443 136.5,206.5C 135.053,207.885 134.053,207.552 133.5,205.5 Z"/>
  </g>
  <g>
    <path fill="#b8b8b8" d="M 154.5,204.5 C 154.408,206.848 153.408,208.514 151.5,209.5C 151.75,207.326 152.75,205.659 154.5,204.5 Z"/>
  </g>
  <g>
    <path fill="#747474" d="M 151.5,209.5 C 151.573,211.027 150.906,212.027 149.5,212.5C 149.427,210.973 150.094,209.973 151.5,209.5 Z"/>
  </g>
  <g>
    <path fill="#494949" d="M 286.5,213.5 C 286.573,215.027 285.906,216.027 284.5,216.5C 284.427,214.973 285.094,213.973 286.5,213.5 Z"/>
  </g>
  <g>
    <path fill="#b2b2b2" d="M 149.5,213.5 C 149.408,215.848 148.408,217.514 146.5,218.5C 146.75,216.326 147.75,214.659 149.5,213.5 Z"/>
  </g>
  <g>
    <path fill="#a3a3a3" d="M 239.5,216.5 C 235.077,219.53 230.077,221.197 224.5,221.5C 229.341,219.664 234.341,217.997 239.5,216.5 Z"/>
  </g>
  <g>
    <path fill="#bababa" d="M 144.5,222.5 C 144.408,224.848 143.408,226.514 141.5,227.5C 141.75,225.326 142.75,223.659 144.5,222.5 Z"/>
  </g>
  <g>
    <path fill="#7e7e7e" d="M 140.5,229.5 C 140.573,231.027 139.906,232.027 138.5,232.5C 138.427,230.973 139.094,229.973 140.5,229.5 Z"/>
  </g>
  <g>
    <path fill="#989898" d="M 138.5,233.5 C 138.573,235.027 137.906,236.027 136.5,236.5C 136.427,234.973 137.094,233.973 138.5,233.5 Z"/>
  </g>
  <g>
    <path fill="#bdbdbd" d="M 289.5,238.5 C 287.901,237.438 286.234,237.438 284.5,238.5C 286.455,234.648 288.122,234.648 289.5,238.5 Z"/>
  </g>
  <g>
    <path fill="#f9f9f9" d="M 289.5,238.5 C 289.427,240.027 290.094,241.027 291.5,241.5C 293.008,243.181 294.008,245.181 294.5,247.5C 294.427,249.027 295.094,250.027 296.5,250.5C 298.674,253.515 300.341,256.849 301.5,260.5C 301.427,262.027 302.094,263.027 303.5,263.5C 304.674,264.514 305.34,265.847 305.5,267.5C 305.427,269.027 306.094,270.027 307.5,270.5C 309.008,272.181 310.008,274.181 310.5,276.5C 310.427,278.027 311.094,279.027 312.5,279.5C 313.338,279.842 313.672,280.508 313.5,281.5C 313.414,282.496 313.748,283.329 314.5,284C 303.172,284.5 291.838,284.667 280.5,284.5C 278.588,282.343 276.921,280.009 275.5,277.5C 275.573,275.973 274.906,274.973 273.5,274.5C 272.167,271.833 270.833,269.167 269.5,266.5C 269.573,264.973 268.906,263.973 267.5,263.5C 267.34,261.847 266.674,260.514 265.5,259.5C 265.573,257.973 264.906,256.973 263.5,256.5C 262.588,255.262 262.421,253.928 263,252.5C 265.475,251.014 267.975,249.681 270.5,248.5C 272.027,248.573 273.027,247.906 273.5,246.5C 276.952,243.601 280.618,240.934 284.5,238.5C 286.234,237.438 287.901,237.438 289.5,238.5 Z"/>
  </g>
  <g>
    <path fill="#8b8b8b" d="M 289.5,238.5 C 290.906,238.973 291.573,239.973 291.5,241.5C 290.094,241.027 289.427,240.027 289.5,238.5 Z"/>
  </g>
  <g>
    <path fill="#a8a8a8" d="M 175.5,241.5 C 178.491,241.166 180.824,242.166 182.5,244.5C 179.843,244.065 177.509,243.065 175.5,241.5 Z"/>
  </g>
  <g>
    <path fill="#505050" d="M 170.5,240.5 C 170.573,242.027 169.906,243.027 168.5,243.5C 168.427,241.973 169.094,240.973 170.5,240.5 Z"/>
  </g>
  <g>
    <path fill="#696969" d="M 252.5,240.5 C 249.691,242.897 246.358,244.23 242.5,244.5C 245.518,242.6 248.851,241.267 252.5,240.5 Z"/>
  </g>
  <g>
    <path fill="#979797" d="M 133.5,242.5 C 133.573,244.027 132.906,245.027 131.5,245.5C 131.427,243.973 132.094,242.973 133.5,242.5 Z"/>
  </g>
  <g>
    <path fill="#686868" d="M 186.5,245.5 C 188.898,245.259 190.898,245.926 192.5,247.5C 190.102,247.741 188.102,247.074 186.5,245.5 Z"/>
  </g>
  <g>
    <path fill="#9f9f9f" d="M 273.5,246.5 C 273.027,247.906 272.027,248.573 270.5,248.5C 270.973,247.094 271.973,246.427 273.5,246.5 Z"/>
  </g>
  <g>
    <path fill="#717171" d="M 166.5,247.5 C 166.573,249.027 165.906,250.027 164.5,250.5C 164.427,248.973 165.094,247.973 166.5,247.5 Z"/>
  </g>
  <g>
    <path fill="#888888" d="M 294.5,247.5 C 295.906,247.973 296.573,248.973 296.5,250.5C 295.094,250.027 294.427,249.027 294.5,247.5 Z"/>
  </g>
  <g>
    <path fill="#b7b7b7" d="M 128.5,251.5 C 128.408,253.848 127.408,255.514 125.5,256.5C 125.75,254.326 126.75,252.659 128.5,251.5 Z"/>
  </g>
  <g>
    <path fill="#5e5e5e" d="M 263.5,256.5 C 264.906,256.973 265.573,257.973 265.5,259.5C 264.094,259.027 263.427,258.027 263.5,256.5 Z"/>
  </g>
  <g>
    <path fill="#5d5d5d" d="M 160.5,258.5 C 160.573,260.027 159.906,261.027 158.5,261.5C 158.427,259.973 159.094,258.973 160.5,258.5 Z"/>
  </g>
  <g>
    <path fill="#9f9f9f" d="M 301.5,260.5 C 302.906,260.973 303.573,261.973 303.5,263.5C 302.094,263.027 301.427,262.027 301.5,260.5 Z"/>
  </g>
  <g>
    <path fill="#b8b8b8" d="M 123.5,260.5 C 123.408,262.848 122.408,264.514 120.5,265.5C 120.75,263.326 121.75,261.659 123.5,260.5 Z"/>
  </g>
  <g>
    <path fill="#6d6d6d" d="M 267.5,263.5 C 268.906,263.973 269.573,264.973 269.5,266.5C 268.094,266.027 267.427,265.027 267.5,263.5 Z"/>
  </g>
  <g>
    <path fill="#666666" d="M 156.5,265.5 C 156.573,267.027 155.906,268.027 154.5,268.5C 154.427,266.973 155.094,265.973 156.5,265.5 Z"/>
  </g>
  <g>
    <path fill="#949494" d="M 305.5,267.5 C 306.906,267.973 307.573,268.973 307.5,270.5C 306.094,270.027 305.427,269.027 305.5,267.5 Z"/>
  </g>
  <g>
    <path fill="#b3b3b3" d="M 119.5,267.5 C 119.264,270.621 117.931,272.954 115.5,274.5C 116.079,271.669 117.412,269.336 119.5,267.5 Z"/>
  </g>
  <g>
    <path fill="#686868" d="M 273.5,274.5 C 274.906,274.973 275.573,275.973 275.5,277.5C 274.094,277.027 273.427,276.027 273.5,274.5 Z"/>
  </g>
  <g>
    <path fill="#646464" d="M 150.5,276.5 C 150.573,278.027 149.906,279.027 148.5,279.5C 148.427,277.973 149.094,276.973 150.5,276.5 Z"/>
  </g>
  <g>
    <path fill="#8e8e8e" d="M 310.5,276.5 C 311.906,276.973 312.573,277.973 312.5,279.5C 311.094,279.027 310.427,278.027 310.5,276.5 Z"/>
  </g>
  <g>
    <path fill="#979797" d="M 113.5,278.5 C 113.573,280.027 112.906,281.027 111.5,281.5C 111.427,279.973 112.094,278.973 113.5,278.5 Z"/>
  </g>
  <g>
    <path fill="#a1a1a1" d="M 313.5,281.5 C 315.104,282.287 315.771,283.62 315.5,285.5C 303.655,285.828 291.988,285.495 280.5,284.5C 291.838,284.667 303.172,284.5 314.5,284C 313.748,283.329 313.414,282.496 313.5,281.5 Z"/>
  </g>
  <g>
    <path fill="#8e8e8e" d="M 93.5,312.5 C 97.6463,311.353 101.98,311.186 106.5,312C 107.464,313.725 108.131,315.559 108.5,317.5C 107.053,316.378 106.053,314.878 105.5,313C 101.514,312.501 97.5138,312.334 93.5,312.5 Z"/>
  </g>
  <g>
    <path fill="#aeaeae" d="M 225.5,312.5 C 220.5,312.5 215.5,312.5 210.5,312.5C 215.483,309.913 220.483,309.913 225.5,312.5 Z"/>
  </g>
  <g>
    <path fill="#919191" d="M 340.5,310.5 C 340.167,310.5 339.833,310.5 339.5,310.5C 336.833,310.5 334.167,310.5 331.5,310.5C 331.5,313.833 331.5,317.167 331.5,320.5C 330.209,320.737 329.209,320.404 328.5,319.5C 330.402,316.663 331.069,313.329 330.5,309.5C 334.042,309.187 337.375,309.521 340.5,310.5 Z"/>
  </g>
  <g>
    <path fill="#f3f3f3" d="M 339.5,310.5 C 339.5,321.167 339.5,331.833 339.5,342.5C 337.167,342.5 334.833,342.5 332.5,342.5C 332.44,341.957 332.107,341.624 331.5,341.5C 324.162,346.524 318.329,345.19 314,337.5C 311.856,329.968 313.689,323.801 319.5,319C 322.592,318.264 325.592,318.431 328.5,319.5C 329.209,320.404 330.209,320.737 331.5,320.5C 331.5,317.167 331.5,313.833 331.5,310.5C 334.167,310.5 336.833,310.5 339.5,310.5 Z"/>
  </g>
  <g>
    <path fill="#a6a6a6" d="M 339.5,310.5 C 339.833,310.5 340.167,310.5 340.5,310.5C 340.667,321.505 340.5,332.505 340,343.5C 338.769,344.108 337.436,344.441 336,344.5C 334.319,344.392 333.152,343.725 332.5,342.5C 334.833,342.5 337.167,342.5 339.5,342.5C 339.5,331.833 339.5,321.167 339.5,310.5 Z"/>
  </g>
  <g>
    <path fill="#f1f1f1" d="M 210.5,312.5 C 215.5,312.5 220.5,312.5 225.5,312.5C 231.508,314.83 234.175,319.164 233.5,325.5C 230.167,325.5 226.833,325.5 223.5,325.5C 222.747,320.276 219.747,318.443 214.5,320C 212.522,323.933 212.022,328.1 213,332.5C 216.623,336.478 220.123,336.478 223.5,332.5C 226.391,331.597 229.391,331.264 232.5,331.5C 232.5,333.167 232.5,334.833 232.5,336.5C 231.32,339.845 228.987,342.011 225.5,343C 217.777,346.007 210.944,344.84 205,339.5C 203.441,337.783 202.608,335.783 202.5,333.5C 202.413,328.463 202.746,323.463 203.5,318.5C 205.239,315.757 207.573,313.757 210.5,312.5 Z"/>
  </g>
  <g>
    <path fill="#f4f4f4" d="M 93.5,312.5 C 97.5138,312.334 101.514,312.501 105.5,313C 106.053,314.878 107.053,316.378 108.5,317.5C 109.783,322.352 111.45,327.019 113.5,331.5C 113.12,333.698 113.787,335.365 115.5,336.5C 115.5,336.833 115.5,337.167 115.5,337.5C 115.357,339.262 115.691,340.929 116.5,342.5C 113.232,343.487 109.898,343.82 106.5,343.5C 105.596,342.791 105.263,341.791 105.5,340.5C 101.702,339.517 97.7016,339.183 93.5,339.5C 93.5,340.833 93.5,342.167 93.5,343.5C 90.1667,343.5 86.8333,343.5 83.5,343.5C 84.2456,337.177 85.9123,331.177 88.5,325.5C 90.2132,324.365 90.8799,322.698 90.5,320.5C 91.5115,317.748 92.5115,315.081 93.5,312.5 Z"/>
  </g>
  <g>
    <path fill="#b0b0b0" d="M 238.5,309.5 C 241.777,309.216 244.943,309.549 248,310.5C 248.667,321.5 248.667,332.5 248,343.5C 244.943,344.451 241.777,344.784 238.5,344.5C 238.5,332.833 238.5,321.167 238.5,309.5 Z"/>
  </g>
  <g>
    <path fill="#fefffe" d="M 239.5,311.5 C 241.833,311.5 244.167,311.5 246.5,311.5C 246.5,321.833 246.5,332.167 246.5,342.5C 244.167,342.5 241.833,342.5 239.5,342.5C 239.5,332.167 239.5,321.833 239.5,311.5 Z"/>
  </g>
  <g>
    <path fill="#a3a3a3" d="M 271.5,319.5 C 267.102,319.294 262.768,319.627 258.5,320.5C 258.611,319.883 258.944,319.383 259.5,319C 263.689,318.188 267.689,318.355 271.5,319.5 Z"/>
  </g>
  <g>
    <path fill="#eeeeee" d="M 146.5,333.5 C 140.833,333.5 135.167,333.5 129.5,333.5C 129.229,335.38 129.896,336.713 131.5,337.5C 133.288,338.622 135.288,338.789 137.5,338C 138.714,336.431 140.381,335.598 142.5,335.5C 144.333,335.585 145.666,336.252 146.5,337.5C 145.92,339.749 144.587,341.415 142.5,342.5C 137.562,343.392 132.562,343.726 127.5,343.5C 126.508,343.672 125.842,343.338 125.5,342.5C 125.027,341.094 124.027,340.427 122.5,340.5C 119.609,335.957 118.776,330.957 120,325.5C 121.5,322.667 123.667,320.5 126.5,319C 135.36,316.44 142.194,318.94 147,326.5C 147.703,328.929 147.537,331.262 146.5,333.5 Z"/>
  </g>
  <g>
    <path fill="#fcfcfc" d="M 158.5,319.5 C 159.833,320.833 161.167,320.833 162.5,319.5C 164.167,319.5 165.833,319.5 167.5,319.5C 167.5,321.5 167.5,323.5 167.5,325.5C 165.62,325.229 164.287,325.896 163.5,327.5C 162.833,327.5 162.5,327.833 162.5,328.5C 161.5,328.833 160.833,329.5 160.5,330.5C 159.517,334.298 159.183,338.298 159.5,342.5C 157.167,342.5 154.833,342.5 152.5,342.5C 152.5,334.833 152.5,327.167 152.5,319.5C 154.5,319.5 156.5,319.5 158.5,319.5 Z"/>
  </g>
  <g>
    <path fill="#ebebeb" d="M 179.5,318.5 C 194.591,317.41 200.424,324.077 197,338.5C 192.116,344.22 185.95,346.053 178.5,344C 171.547,340.158 169.047,334.325 171,326.5C 172.445,322.218 175.278,319.551 179.5,318.5 Z"/>
  </g>
  <g>
    <path fill="#eeeeee" d="M 271.5,319.5 C 274.64,320.129 277.14,321.796 279,324.5C 282.428,336.863 277.928,343.529 265.5,344.5C 259.646,345.157 255.48,342.824 253,337.5C 252.333,333.5 252.333,329.5 253,325.5C 254.076,322.921 255.909,321.254 258.5,320.5C 262.768,319.627 267.102,319.294 271.5,319.5 Z"/>
  </g>
  <g>
    <path fill="#c6c6c6" d="M 162.5,319.5 C 169.323,317.453 171.323,319.953 168.5,327C 166.866,327.494 165.199,327.66 163.5,327.5C 164.287,325.896 165.62,325.229 167.5,325.5C 167.5,323.5 167.5,321.5 167.5,319.5C 165.833,319.5 164.167,319.5 162.5,319.5 Z"/>
  </g>
  <g>
    <path fill="#efefef" d="M 300.5,319.5 C 303.167,319.5 305.833,319.5 308.5,319.5C 308.5,327.167 308.5,334.833 308.5,342.5C 306.167,342.5 303.833,342.5 301.5,342.5C 300.368,341.646 299.035,341.646 297.5,342.5C 293.833,342.5 290.167,342.5 286.5,342.5C 285.496,341.317 284.662,339.984 284,338.5C 283.333,332.167 283.333,325.833 284,319.5C 287,318.167 290,318.167 293,319.5C 293.333,324.833 293.667,330.167 294,335.5C 295.667,336.833 297.333,336.833 299,335.5C 299.173,329.984 299.673,324.651 300.5,319.5 Z"/>
  </g>
  <g>
    <path fill="#bbbbbb" d="M 300.5,319.5 C 303.287,318.523 306.287,318.19 309.5,318.5C 309.5,326.833 309.5,335.167 309.5,343.5C 306.615,343.806 303.948,343.473 301.5,342.5C 303.833,342.5 306.167,342.5 308.5,342.5C 308.5,334.833 308.5,327.167 308.5,319.5C 305.833,319.5 303.167,319.5 300.5,319.5 Z"/>
  </g>
  <g>
    <path fill="#838383" d="M 90.5,320.5 C 90.8799,322.698 90.2132,324.365 88.5,325.5C 88.7959,323.597 89.4625,321.93 90.5,320.5 Z"/>
  </g>
  <g>
    <path fill="#5b5b5b" d="M 100.5,324.5 C 99.8333,325.5 99.1667,326.5 98.5,327.5C 98.238,326.022 98.5713,324.689 99.5,323.5C 100.107,323.624 100.44,323.957 100.5,324.5 Z"/>
  </g>
  <g>
    <path fill="#191919" d="M 100.5,324.5 C 101.434,325.568 101.768,326.901 101.5,328.5C 100.5,331.167 99.5,331.167 98.5,328.5C 98.5,328.167 98.5,327.833 98.5,327.5C 99.1667,326.5 99.8333,325.5 100.5,324.5 Z"/>
  </g>
  <g>
    <path fill="#616161" d="M 135.5,325.5 C 133.571,325.231 131.905,325.731 130.5,327C 132.712,327.789 134.712,327.622 136.5,326.5C 137.043,326.56 137.376,326.893 137.5,327.5C 134.914,328.48 132.247,328.813 129.5,328.5C 129.33,327.178 129.663,326.011 130.5,325C 132.387,324.22 134.054,324.387 135.5,325.5 Z"/>
  </g>
  <g>
    <path fill="#0a0a0a" d="M 135.5,325.5 C 136.167,325.5 136.5,325.833 136.5,326.5C 134.712,327.622 132.712,327.789 130.5,327C 131.905,325.731 133.571,325.231 135.5,325.5 Z"/>
  </g>
  <g>
    <path fill="#141414" d="M 181.5,325.5 C 184.044,325.104 186.211,325.771 188,327.5C 189.004,330.993 188.504,334.159 186.5,337C 184.299,337.825 182.466,337.325 181,335.5C 180.253,332.076 180.42,328.743 181.5,325.5 Z"/>
  </g>
  <g>
    <path fill="#9b9b9b" d="M 203.5,318.5 C 202.746,323.463 202.413,328.463 202.5,333.5C 201.353,329.354 201.186,325.02 202,320.5C 202.278,319.584 202.778,318.918 203.5,318.5 Z"/>
  </g>
  <g>
    <path fill="#171717" d="M 263.5,325.5 C 268.192,324.499 270.525,326.332 270.5,331C 270.762,336.746 268.262,338.58 263,336.5C 262.245,332.745 262.411,329.078 263.5,325.5 Z"/>
  </g>
  <g>
    <path fill="#151515" d="M 330.5,327.5 C 330.664,330.187 330.497,332.854 330,335.5C 328.644,336.38 327.144,336.714 325.5,336.5C 324.883,336.389 324.383,336.056 324,335.5C 323.333,332.833 323.333,330.167 324,327.5C 326.163,326.232 328.33,326.232 330.5,327.5 Z"/>
  </g>
  <g>
    <path fill="#5c5c5c" d="M 98.5,328.5 C 99.5,331.167 100.5,331.167 101.5,328.5C 102.404,329.209 102.737,330.209 102.5,331.5C 100.833,331.5 99.1667,331.5 97.5,331.5C 97.2627,330.209 97.596,329.209 98.5,328.5 Z"/>
  </g>
  <g>
    <path fill="#adadad" d="M 232.5,336.5 C 232.5,334.833 232.5,333.167 232.5,331.5C 229.391,331.264 226.391,331.597 223.5,332.5C 226.337,330.598 229.671,329.931 233.5,330.5C 233.795,332.735 233.461,334.735 232.5,336.5 Z"/>
  </g>
  <g>
    <path fill="#666666" d="M 162.5,328.5 C 161.932,333.637 161.266,338.637 160.5,343.5C 160.5,339.167 160.5,334.833 160.5,330.5C 160.833,329.5 161.5,328.833 162.5,328.5 Z"/>
  </g>
  <g>
    <path fill="#929292" d="M 113.5,331.5 C 114.537,332.93 115.204,334.597 115.5,336.5C 113.787,335.365 113.12,333.698 113.5,331.5 Z"/>
  </g>
  <g>
    <path fill="#232323" d="M 146.5,333.5 C 146.5,333.833 146.5,334.167 146.5,334.5C 141.12,334.477 136.12,335.477 131.5,337.5C 129.896,336.713 129.229,335.38 129.5,333.5C 135.167,333.5 140.833,333.5 146.5,333.5 Z"/>
  </g>
  <g>
    <path fill="#c2c2c2" d="M 330.5,327.5 C 331.638,330.304 331.805,333.304 331,336.5C 329.057,337.807 327.223,337.807 325.5,336.5C 327.144,336.714 328.644,336.38 330,335.5C 330.497,332.854 330.664,330.187 330.5,327.5 Z"/>
  </g>
  <g>
    <path fill="#b6b6b6" d="M 146.5,334.5 C 147.833,335.5 147.833,336.5 146.5,337.5C 145.666,336.252 144.333,335.585 142.5,335.5C 140.381,335.598 138.714,336.431 137.5,338C 135.288,338.789 133.288,338.622 131.5,337.5C 136.12,335.477 141.12,334.477 146.5,334.5 Z"/>
  </g>
  <g>
    <path fill="#434343" d="M 105.5,340.5 C 101.833,340.5 98.1667,340.5 94.5,340.5C 94.7373,341.791 94.404,342.791 93.5,343.5C 93.5,342.167 93.5,340.833 93.5,339.5C 97.7016,339.183 101.702,339.517 105.5,340.5 Z"/>
  </g>
  <g>
    <path fill="#a3a3a3" d="M 122.5,340.5 C 124.027,340.427 125.027,341.094 125.5,342.5C 123.973,342.573 122.973,341.906 122.5,340.5 Z"/>
  </g>
  <g>
    <path fill="#7a7a7a" d="M 115.5,337.5 C 117.163,339.438 117.829,341.772 117.5,344.5C 113.629,344.815 109.962,344.482 106.5,343.5C 109.898,343.82 113.232,343.487 116.5,342.5C 115.691,340.929 115.357,339.262 115.5,337.5 Z"/>
  </g>
  <g>
    <path fill="#b6b6b6" d="M 158.5,319.5 C 156.5,319.5 154.5,319.5 152.5,319.5C 152.5,327.167 152.5,334.833 152.5,342.5C 154.833,342.5 157.167,342.5 159.5,342.5C 159.183,338.298 159.517,334.298 160.5,330.5C 160.5,334.833 160.5,339.167 160.5,343.5C 157.167,343.5 153.833,343.5 150.5,343.5C 150.334,335.493 150.5,327.493 151,319.5C 153.605,318.186 156.105,318.186 158.5,319.5 Z"/>
  </g>
  <g>
    <path fill="#cccccc" d="M 286.5,342.5 C 290.167,342.5 293.833,342.5 297.5,342.5C 293.833,345.167 290.167,345.167 286.5,342.5 Z"/>
  </g>
  <g>
    <path fill="#666666" d="M 142.5,342.5 C 142.389,343.117 142.056,343.617 141.5,344C 136.648,344.815 131.981,344.648 127.5,343.5C 132.562,343.726 137.562,343.392 142.5,342.5 Z"/>
  </g>
</svg>
