<?xml version="1.0" encoding="UTF-8" standalone="yes"?>
<svg version="1.2" width="1677.000000pt" height="1677.000000pt" viewBox="0 0 1677.000000 1677.000000" preserveAspectRatio="xMidYMid meet" baseProfile="tiny-ps" xmlns="http://www.w3.org/2000/svg">
  <title>bimi-svg-tiny-12-ps</title>
  <g transform="translate(0.000000,1677.000000) scale(0.100000,-0.100000)" fill="#000000" stroke="none">
    <path d="M0 8385 l0 -8385 8385 0 8385 0 0 8385 0 8385 -8385 0 -8385 0 0&#xA;-8385z m8820 7545 c297 -10 602 -44 677 -75 20 -8 99 -24 177 -34 77 -11 179&#xA;-31 226 -44 132 -40 218 -64 305 -86 89 -22 358 -112 420 -140 22 -10 57 -24&#xA;78 -30 20 -7 37 -17 37 -22 0 -5 8 -9 19 -9 21 0 185 -64 218 -86 12 -8 31&#xA;-14 42 -14 11 0 21 -4 23 -8 2 -4 28 -19 58 -34 257 -123 335 -162 338 -169 2&#xA;-5 10 -9 19 -9 8 0 27 -8 41 -19 15 -10 47 -28 71 -41 24 -12 49 -26 55 -32 6&#xA;-5 34 -23 61 -39 79 -46 90 -53 97 -65 4 -6 21 -17 38 -24 16 -7 30 -16 30&#xA;-20 0 -4 14 -13 30 -20 17 -7 30 -16 30 -21 0 -4 9 -11 20 -14 11 -3 26 -12&#xA;32 -19 7 -6 31 -23 53 -36 22 -13 56 -36 75 -52 19 -15 39 -28 43 -28 12 0&#xA;171 -117 224 -165 23 -21 40 -42 36 -48 -3 -6 -1 -7 5 -3 7 4 24 -4 39 -18 15&#xA;-15 31 -26 34 -26 3 0 26 -19 51 -42 25 -24 76 -70 113 -103 150 -133 438&#xA;-426 561 -571 72 -85 77 -91 134 -164 19 -24 50 -60 67 -80 18 -19 33 -40 33&#xA;-46 0 -7 6 -14 14 -17 15 -6 76 -92 76 -108 0 -5 6 -9 13 -9 6 0 18 -13 25&#xA;-29 7 -16 23 -40 35 -54 22 -24 39 -50 64 -97 7 -14 13 -21 13 -16 0 6 20 -20&#xA;45 -57 25 -37 45 -70 45 -73 0 -3 14 -26 30 -51 17 -24 30 -48 30 -54 0 -5 5&#xA;-9 10 -9 6 0 10 -9 10 -20 0 -11 5 -20 10 -20 6 0 10 -4 10 -9 0 -8 58 -108&#xA;77 -134 5 -7 16 -28 23 -47 7 -19 24 -49 37 -67 12 -17 23 -40 23 -51 0 -11 6&#xA;-25 13 -31 8 -6 19 -30 26 -53 10 -31 15 -38 22 -27 7 9 7 5 3 -15 -5 -20 -3&#xA;-27 4 -22 6 4 18 -9 27 -31 9 -21 21 -45 26 -53 5 -8 12 -22 15 -30 3 -8 12&#xA;-27 20 -43 8 -15 12 -32 9 -37 -3 -6 -2 -10 4 -10 6 0 16 -18 22 -40 7 -21 15&#xA;-37 19 -35 4 2 13 -15 20 -38 6 -23 18 -54 26 -69 8 -14 16 -39 18 -55 2 -15&#xA;13 -46 24 -68 12 -22 35 -83 52 -135 17 -52 35 -103 40 -112 6 -10 10 -26 10&#xA;-36 0 -9 9 -33 19 -53 42 -77 39 -162 -6 -203 -15 -14 -31 -23 -35 -20 -5 3&#xA;-14 1 -21 -4 -15 -12 -1390 -22 -1627 -12 -190 9 -219 16 -257 68 -21 28 -92&#xA;162 -113 212 -9 24 -16 35 -40 78 -6 9 -29 56 -52 104 -22 48 -45 85 -49 82&#xA;-5 -3 -9 1 -9 10 0 8 -20 45 -45 82 -25 36 -45 73 -45 80 0 7 -9 18 -20 24&#xA;-11 6 -20 16 -20 23 0 7 -8 22 -18 33 -10 10 -33 42 -52 69 -19 28 -44 61 -57&#xA;75 -13 14 -23 28 -23 32 0 4 -22 34 -50 67 -27 33 -50 64 -50 70 0 5 -4 11 -8&#xA;13 -5 2 -42 41 -83 88 -94 107 -336 350 -414 415 -33 27 -73 62 -90 76 -16 15&#xA;-66 57 -110 93 -44 37 -89 75 -100 85 -11 9 -55 39 -97 65 -43 27 -78 51 -78&#xA;55 0 5 -50 30 -70 35 -3 1 -21 13 -40 27 -19 15 -62 41 -95 58 -70 37 -98 54&#xA;-105 62 -8 9 -73 42 -220 112 -182 87 -205 97 -224 97 -9 0 -16 3 -16 8 0 8&#xA;-16 15 -121 56 -36 14 -72 26 -80 26 -8 0 -19 4 -24 9 -14 13 -152 61 -176 61&#xA;-10 0 -19 5 -19 10 0 6 -14 10 -32 10 -17 0 -45 4 -62 9 -17 6 -60 19 -96 30&#xA;-75 23 -315 67 -410 76 -97 9 -318 40 -375 53 -11 2 -135 6 -275 9 -197 3&#xA;-278 0 -355 -12 -55 -9 -158 -22 -230 -31 -71 -8 -179 -24 -240 -35 -60 -10&#xA;-120 -19 -132 -19 -13 0 -53 -12 -90 -26 -38 -14 -118 -36 -180 -49 -61 -13&#xA;-142 -35 -180 -48 -191 -69 -268 -98 -345 -132 -45 -21 -99 -44 -118 -52 -67&#xA;-29 -216 -104 -305 -154 -49 -27 -103 -57 -120 -65 -37 -18 -47 -24 -165 -103&#xA;-125 -84 -201 -142 -445 -338 -69 -56 -172 -153 -283 -266 -189 -194 -191&#xA;-196 -275 -298 -43 -52 -86 -103 -95 -114 -9 -11 -21 -27 -27 -36 -5 -9 -27&#xA;-41 -47 -70 -21 -30 -54 -78 -74 -108 -20 -30 -42 -61 -50 -68 -8 -8 -14 -20&#xA;-14 -26 0 -7 -13 -27 -29 -46 -16 -18 -55 -81 -87 -140 -60 -108 -221 -430&#xA;-234 -466 -4 -11 -18 -45 -30 -75 -36 -88 -38 -92 -55 -150 -17 -58 -36 -108&#xA;-65 -175 -10 -23 -21 -63 -25 -90 -5 -28 -13 -66 -20 -86 -7 -19 -23 -75 -35&#xA;-125 -12 -49 -29 -101 -36 -116 -8 -15 -18 -71 -23 -125 -6 -54 -18 -145 -27&#xA;-203 -14 -88 -17 -184 -18 -595 -1 -448 5 -587 27 -685 2 -8 7 -37 11 -65 17&#xA;-120 28 -180 35 -190 5 -5 18 -55 31 -110 12 -55 31 -126 41 -157 11 -32 19&#xA;-65 19 -75 0 -20 19 -76 36 -108 26 -48 37 -118 32 -208 -4 -76 -9 -100 -30&#xA;-132 -14 -22 -41 -71 -60 -110 -19 -38 -72 -133 -117 -210 -44 -77 -81 -145&#xA;-81 -152 0 -7 -4 -13 -9 -13 -5 0 -11 -8 -14 -17 -6 -18 -37 -73 -47 -83 -3&#xA;-3 -27 -48 -54 -100 -27 -52 -67 -126 -90 -163 -86 -144 -106 -179 -106 -189&#xA;0 -5 -11 -24 -24 -41 -13 -18 -36 -57 -50 -87 -14 -30 -42 -82 -61 -115 -19&#xA;-33 -40 -69 -45 -80 -6 -11 -19 -33 -29 -50 -11 -16 -41 -70 -67 -120 -85&#xA;-163 -117 -196 -193 -195 -33 1 -49 13 -91 75 -19 28 -41 54 -47 58 -7 4 -13&#xA;13 -13 19 0 6 -11 25 -24 42 -13 17 -27 42 -31 56 -4 14 -10 27 -14 30 -3 3&#xA;-19 30 -35 60 -16 30 -35 63 -43 72 -8 9 -12 21 -9 27 4 5 0 13 -7 18 -7 4&#xA;-21 24 -31 43 -9 19 -24 46 -31 60 -42 75 -145 292 -145 305 0 8 -4 15 -10 15&#xA;-5 0 -10 7 -10 15 0 9 -15 48 -33 88 -32 69 -58 133 -97 242 -10 28 -28 75&#xA;-39 105 -11 30 -26 78 -32 105 -7 28 -18 57 -25 65 -7 9 -19 45 -27 80 -39&#xA;170 -77 319 -91 353 -9 21 -23 75 -32 120 -8 45 -19 96 -24 112 -5 17 -17 83&#xA;-25 147 -8 64 -20 130 -27 145 -18 46 -28 118 -43 323 -8 108 -18 216 -24 240&#xA;-16 74 -13 633 4 810 8 85 15 189 15 230 0 112 21 291 37 323 8 16 25 103 38&#xA;193 28 195 62 345 121 532 8 23 14 52 14 62 0 11 4 28 9 38 5 9 15 43 21 75 6&#xA;32 25 90 41 129 16 39 29 78 29 87 0 16 30 102 55 156 19 41 54 131 72 185 8&#xA;24 33 83 55 130 22 47 43 94 48 105 38 88 154 321 161 323 5 2 9 10 9 18 0 8&#xA;11 33 25 55 14 22 30 50 35 62 5 12 34 63 64 112 30 50 76 126 102 170 39 67&#xA;82 130 122 180 4 6 30 41 57 79 28 38 65 88 83 112 17 24 32 49 32 54 0 5 9&#xA;15 20 22 11 7 20 17 20 22 0 5 19 32 43 60 44 53 87 108 123 157 24 32 104&#xA;125 188 219 135 147 478 476 537 513 16 11 29 25 29 33 0 8 5 14 11 14 5 0 47&#xA;31 92 69 76 63 223 176 277 211 12 8 40 29 61 47 21 17 56 41 76 54 21 13 55&#xA;37 75 54 21 17 61 44 90 59 78 40 96 51 116 69 10 10 23 17 28 17 5 0 50 26&#xA;99 58 50 31 110 67 135 78 126 60 185 90 190 95 4 4 21 13 107 57 164 84 298&#xA;141 386 163 27 7 55 18 62 25 24 25 416 162 580 204 61 15 135 35 165 43 108&#xA;30 276 66 357 77 46 6 97 17 115 24 43 18 128 35 203 40 33 2 94 10 135 16&#xA;157 25 743 35 1180 20z m-397 -2544 c31 -13 79 -56 62 -56 -4 0 4 -9 19 -21&#xA;14 -11 26 -29 26 -39 0 -9 7 -23 15 -30 8 -7 15 -19 15 -27 0 -7 9 -23 20 -35&#xA;17 -18 90 -158 90 -173 0 -5 63 -107 91 -148 11 -15 17 -32 14 -37 -3 -5 0&#xA;-12 7 -17 7 -4 24 -32 37 -60 14 -29 28 -53 33 -53 4 0 8 -11 8 -25 0 -14 5&#xA;-25 10 -25 6 0 10 -6 10 -14 0 -8 4 -16 8 -18 5 -1 24 -32 43 -68 18 -36 37&#xA;-67 40 -70 4 -3 18 -29 31 -58 13 -29 27 -49 31 -46 4 4 7 -2 7 -12 0 -11 4&#xA;-24 9 -29 6 -6 24 -37 41 -70 56 -106 61 -115 71 -115 5 0 9 -7 9 -15 0 -20&#xA;49 -114 72 -139 10 -11 18 -26 18 -33 0 -18 22 -56 38 -66 6 -4 12 -17 12 -28&#xA;0 -11 5 -25 10 -32 25 -30 65 -97 93 -157 17 -36 34 -67 38 -70 4 -3 14 -21&#xA;23 -40 9 -19 41 -78 71 -130 30 -52 64 -114 76 -137 13 -24 27 -43 31 -43 4 0&#xA;8 -8 8 -17 0 -9 6 -24 14 -32 7 -9 37 -61 66 -116 29 -55 59 -107 66 -116 8&#xA;-8 14 -21 14 -27 0 -7 3 -12 8 -12 4 0 13 -12 19 -27 7 -16 22 -49 33 -75 12&#xA;-27 25 -48 30 -48 6 0 10 -11 10 -25 0 -14 4 -25 8 -25 5 0 18 -19 28 -42 10&#xA;-23 28 -54 40 -68 11 -14 31 -46 44 -72 13 -27 27 -48 32 -48 4 0 8 -7 8 -16&#xA;0 -9 8 -28 18 -42 10 -15 26 -43 35 -63 9 -20 23 -42 32 -49 8 -7 15 -22 15&#xA;-34 0 -12 5 -27 11 -33 6 -6 16 -20 23 -31 38 -66 55 -102 49 -102 -5 0 -1 -6&#xA;7 -13 8 -7 25 -32 38 -57 12 -25 27 -52 32 -60 5 -8 11 -22 15 -30 8 -20 24&#xA;-46 63 -102 17 -26 32 -53 32 -60 0 -7 11 -26 25 -42 14 -16 25 -37 25 -47 0&#xA;-10 14 -41 30 -69 17 -28 30 -55 30 -60 0 -6 5 -10 10 -10 6 0 10 -9 10 -19 0&#xA;-11 5 -23 11 -26 10 -7 23 -30 87 -157 16 -32 32 -55 36 -51 3 3 6 -3 6 -15 0&#xA;-11 5 -24 10 -27 6 -4 17 -21 26 -38 8 -18 26 -50 39 -72 13 -22 36 -62 51&#xA;-90 14 -27 32 -57 39 -65 6 -8 20 -35 29 -60 9 -25 30 -63 45 -85 15 -22 39&#xA;-60 52 -85 13 -25 27 -47 30 -50 3 -3 17 -31 32 -62 14 -32 30 -58 36 -58 5 0&#xA;7 -9 4 -20 -3 -12 1 -22 11 -26 9 -3 16 -12 16 -20 0 -7 14 -33 30 -57 17 -25&#xA;30 -52 30 -61 0 -9 3 -16 8 -16 8 0 42 -57 42 -71 0 -6 11 -25 24 -42 43 -57&#xA;129 -238 134 -284 6 -58 -12 -113 -66 -198 -25 -38 -55 -86 -67 -105 -12 -19&#xA;-30 -48 -41 -64 -10 -16 -23 -36 -29 -45 -64 -103 -355 -420 -530 -578 -141&#xA;-126 -293 -241 -389 -295 -27 -16 -63 -38 -80 -51 -17 -13 -51 -34 -76 -48&#xA;-25 -13 -47 -26 -50 -29 -19 -19 -89 -60 -102 -60 -9 0 -20 -4 -23 -10 -3 -5&#xA;-34 -10 -68 -10 -54 0 -67 4 -98 29 -20 17 -53 56 -75 88 -21 32 -42 60 -46&#xA;61 -5 2 -8 15 -8 28 0 15 -6 24 -16 24 -8 0 -12 4 -9 10 6 10 -21 59 -40 72&#xA;-5 4 -7 8 -2 8 4 0 -4 18 -18 40 -14 22 -25 47 -25 55 0 9 -7 18 -15 21 -8 4&#xA;-15 14 -15 24 0 11 -4 21 -9 25 -11 6 -41 63 -41 77 0 5 -11 24 -24 41 -31 43&#xA;-116 204 -116 221 0 8 -6 16 -13 19 -8 3 -29 35 -47 71 -18 37 -36 69 -41 72&#xA;-5 3 -9 14 -9 24 0 10 -6 23 -12 27 -7 4 -26 35 -42 68 -16 33 -32 62 -36 65&#xA;-3 3 -19 32 -35 65 -17 33 -38 68 -47 79 -9 10 -29 42 -43 72 -14 29 -29 54&#xA;-33 56 -4 2 -23 38 -41 81 -19 42 -37 77 -40 77 -7 0 -12 9 -51 86 -13 27 -28&#xA;51 -32 52 -4 2 -8 13 -8 24 0 11 -16 43 -35 72 -19 29 -44 73 -55 99 -12 26&#xA;-25 47 -29 47 -5 0 -16 17 -26 38 -15 34 -56 110 -112 210 -12 22 -33 52 -46&#xA;68 -13 16 -30 44 -38 62 -8 17 -16 32 -19 32 -3 0 -6 8 -7 18 -1 11 -15 39&#xA;-32 65 -17 25 -37 63 -45 84 -8 21 -28 62 -45 90 -17 27 -31 55 -31 60 0 6&#xA;-13 28 -28 49 -16 21 -37 58 -48 81 -10 23 -23 43 -29 43 -5 0 -11 12 -12 27&#xA;0 15 -6 29 -12 31 -6 2 -11 10 -11 18 0 15 -39 76 -52 82 -5 2 -8 12 -8 22 0&#xA;10 -4 20 -9 22 -9 3 -45 67 -102 181 -16 31 -33 57 -39 57 -5 0 -10 9 -10 20&#xA;0 11 -4 20 -10 20 -5 0 -10 8 -10 19 0 10 -7 24 -15 31 -8 7 -15 20 -15 30 0&#xA;10 -7 23 -15 30 -8 7 -15 19 -15 26 0 8 -4 14 -9 14 -5 0 -11 10 -15 23 -3 13&#xA;-17 40 -31 61 -14 20 -25 43 -25 51 0 8 -3 15 -7 15 -9 0 -33 48 -33 66 0 6&#xA;-7 14 -15 18 -8 3 -14 9 -14 13 3 11 -12 45 -26 63 -7 8 -25 40 -41 70 -16 30&#xA;-35 61 -41 68 -7 7 -13 20 -13 28 0 8 -4 12 -10 9 -5 -3 -10 1 -10 10 0 8 -7&#xA;18 -15 21 -8 4 -15 14 -15 23 0 9 -9 34 -20 56 -11 22 -20 45 -20 53 0 7 -13&#xA;27 -30 45 -16 18 -30 40 -30 50 0 17 -38 79 -52 85 -5 2 -8 12 -8 22 0 9 -7&#xA;23 -15 30 -8 7 -15 19 -15 26 0 8 -6 24 -12 37 -17 30 -62 101 -68 107 -16 15&#xA;-46 71 -60 110 -20 59 -12 171 16 226 58 110 82 154 117 207 20 31 37 62 37&#xA;67 0 6 4 10 9 10 5 0 15 17 22 38 12 38 46 104 80 157 10 17 22 37 26 45 3 8&#xA;9 17 12 20 3 3 16 25 29 50 12 25 44 86 70 135 27 50 67 124 89 165 22 41 51&#xA;92 66 113 14 21 36 59 48 85 12 26 28 54 34 62 7 8 39 65 70 125 32 61 63 117&#xA;70 125 7 8 27 44 45 80 18 36 38 72 45 80 6 8 35 58 62 110 132 248 148 271&#xA;193 287 46 16 55 16 93 -1z m-1759 -3240 c18 -18 40 -49 49 -67 9 -19 17 -29&#xA;17 -24 1 12 70 -132 70 -146 0 -11 15 -31 43 -57 9 -9 17 -22 17 -29 0 -7 5&#xA;-13 10 -13 6 0 10 -11 10 -24 0 -14 5 -28 11 -32 6 -3 20 -25 31 -48 26 -54&#xA;42 -82 59 -103 8 -10 25 -40 39 -68 13 -27 27 -52 31 -55 3 -3 20 -34 38 -70&#xA;31 -62 77 -150 150 -287 18 -35 37 -63 41 -63 4 0 13 -15 20 -32 7 -18 23 -46&#xA;35 -63 12 -16 30 -51 41 -77 10 -27 22 -48 27 -48 4 0 7 -8 7 -17 0 -10 7 -27&#xA;15 -37 8 -11 15 -28 15 -37 0 -10 4 -19 8 -21 19 -8 152 -248 152 -274 0 -6 7&#xA;-14 15 -18 8 -3 15 -12 15 -19 0 -8 7 -20 15 -27 9 -7 13 -15 10 -18 -3 -3 6&#xA;-20 20 -38 14 -18 25 -39 25 -48 0 -8 4 -17 9 -20 15 -10 68 -131 76 -174 7&#xA;-44 -16 -141 -40 -172 -7 -8 -19 -28 -27 -45 -36 -73 -101 -192 -118 -215 -10&#xA;-14 -31 -52 -48 -85 -16 -33 -48 -96 -71 -139 -22 -44 -41 -84 -41 -88 0 -5&#xA;-11 -21 -25 -36 -14 -15 -25 -30 -25 -34 0 -5 -29 -60 -65 -124 -36 -64 -65&#xA;-120 -65 -124 0 -4 -24 -47 -53 -96 -29 -49 -75 -129 -102 -179 -139 -259&#xA;-152 -284 -200 -360 -24 -38 -57 -98 -73 -131 -16 -34 -46 -86 -65 -117 -20&#xA;-30 -47 -80 -61 -110 -15 -30 -35 -65 -45 -78 -10 -13 -42 -69 -71 -124 -29&#xA;-55 -61 -117 -72 -137 -29 -55 -16 -84 58 -129 32 -20 61 -35 63 -33 2 2 13&#xA;-3 25 -11 11 -8 28 -15 37 -15 10 0 30 -6 46 -14 47 -25 122 -56 133 -56 15 0&#xA;200 -61 245 -80 34 -15 101 -32 290 -74 11 -3 67 -12 125 -21 58 -10 110 -20&#xA;115 -25 46 -35 319 -55 717 -53 434 3 703 18 770 42 29 11 103 29 163 40 162&#xA;29 267 51 290 60 11 5 88 30 170 56 155 50 193 64 258 96 22 10 45 19 53 19&#xA;12 0 250 109 319 146 17 9 76 40 132 69 136 71 247 137 319 191 32 24 62 44&#xA;67 44 14 0 137 90 202 147 33 29 63 53 67 53 26 0 369 322 518 485 61 67 140&#xA;161 140 168 0 2 18 24 41 48 41 44 54 62 156 214 30 43 57 82 61 85 23 16 143&#xA;213 209 340 13 25 27 52 32 60 5 8 15 28 22 44 25 53 65 84 125 96 88 19 1786&#xA;11 1836 -8 46 -17 68 -50 68 -102 0 -42 -33 -153 -69 -232 -11 -24 -23 -58&#xA;-26 -77 -4 -19 -32 -85 -61 -146 -30 -62 -54 -119 -54 -128 0 -9 -4 -19 -10&#xA;-22 -6 -3 -10 -15 -10 -25 0 -10 -4 -20 -8 -22 -5 -1 -36 -59 -71 -128 -137&#xA;-274 -188 -369 -236 -440 -27 -41 -55 -86 -62 -100 -24 -46 -178 -275 -206&#xA;-305 -17 -19 -79 -106 -102 -144 -6 -9 -18 -25 -27 -36 -9 -11 -49 -60 -89&#xA;-110 -40 -49 -88 -106 -106 -125 -18 -19 -33 -38 -33 -41 0 -3 -12 -19 -27&#xA;-36 -265 -286 -254 -275 -429 -443 -187 -179 -376 -341 -459 -394 -16 -11 -55&#xA;-41 -85 -66 -30 -26 -90 -71 -134 -100 -43 -29 -86 -58 -95 -65 -52 -43 -113&#xA;-85 -121 -85 -6 0 -10 -4 -10 -8 0 -4 -19 -18 -42 -30 -24 -12 -70 -40 -104&#xA;-61 -34 -21 -97 -58 -141 -82 -44 -24 -107 -59 -139 -78 -71 -42 -291 -151&#xA;-303 -151 -5 0 -11 -3 -13 -7 -4 -11 -126 -70 -161 -79 -16 -3 -55 -19 -86&#xA;-34 -32 -16 -77 -34 -102 -41 -24 -7 -46 -15 -49 -19 -3 -3 -48 -19 -100 -37&#xA;-131 -44 -214 -76 -220 -85 -4 -4 -23 -9 -43 -10 -20 -2 -37 -6 -37 -10 0 -5&#xA;-10 -8 -23 -8 -13 0 -27 -4 -32 -9 -6 -4 -55 -20 -110 -35 -55 -15 -124 -33&#xA;-152 -42 -29 -8 -76 -18 -105 -21 -29 -4 -79 -17 -111 -29 -32 -13 -93 -28&#xA;-135 -34 -42 -6 -108 -18 -147 -26 -38 -8 -149 -21 -245 -30 -96 -8 -197 -21&#xA;-225 -29 -63 -18 -392 -35 -674 -35 -320 1 -545 15 -696 43 -71 14 -175 30&#xA;-230 36 -55 6 -127 16 -160 22 -33 6 -67 11 -75 11 -23 0 -121 24 -155 38 -16&#xA;6 -50 15 -75 20 -165 30 -343 75 -386 98 -10 5 -57 19 -104 31 -48 12 -124 35&#xA;-170 52 -47 17 -100 36 -117 43 -18 6 -33 14 -33 18 0 5 -9 8 -19 8 -11 0 -22&#xA;4 -26 9 -3 5 -20 13 -37 17 -18 3 -39 10 -48 15 -15 8 -51 23 -130 54 -67 26&#xA;-79 31 -145 62 -33 15 -64 28 -70 28 -5 0 -21 8 -35 17 -14 9 -36 17 -50 19&#xA;-32 3 -80 -10 -80 -22 0 -5 -19 -40 -42 -77 -23 -37 -80 -144 -128 -238 -48&#xA;-94 -100 -190 -117 -215 -17 -24 -41 -67 -54 -94 -21 -45 -34 -69 -91 -154&#xA;-10 -14 -24 -39 -31 -56 -8 -16 -30 -55 -49 -85 -19 -30 -54 -93 -76 -140 -23&#xA;-47 -55 -107 -70 -135 -16 -27 -61 -111 -101 -185 -41 -74 -77 -139 -81 -145&#xA;-4 -5 -22 -37 -40 -70 -18 -33 -41 -73 -51 -90 -41 -70 -133 -237 -157 -285&#xA;-9 -19 -20 -36 -24 -38 -5 -2 -8 -7 -8 -11 0 -8 -15 -36 -113 -211 -17 -30&#xA;-39 -73 -50 -95 -11 -22 -30 -56 -43 -76 -13 -21 -44 -79 -71 -130 -26 -52&#xA;-53 -98 -59 -104 -7 -5 -38 -59 -70 -120 -31 -60 -68 -130 -81 -155 -31 -59&#xA;-74 -105 -120 -130 -37 -20 -53 -20 -1146 -20 -1200 0 -1133 -3 -1186 54 -20&#xA;22 -23 32 -19 78 3 29 17 78 32 108 46 93 85 163 114 205 16 22 48 78 71 125&#xA;24 47 69 129 100 183 58 101 80 141 171 312 30 55 62 114 71 130 10 17 29 54&#xA;44 82 14 29 38 72 54 95 16 24 49 81 73 128 25 47 61 110 80 140 19 30 49 83&#xA;67 118 17 34 41 77 51 95 11 17 22 39 26 47 3 8 9 22 14 30 5 8 17 31 26 50&#xA;10 19 23 42 30 50 6 8 27 42 45 75 18 33 45 83 61 110 15 28 39 71 53 97 13&#xA;26 29 49 35 53 5 3 10 15 10 25 0 10 3 20 8 22 4 2 33 53 64 113 103 202 140&#xA;270 167 305 15 19 40 62 56 95 16 33 44 83 62 112 18 29 33 55 33 59 0 14 65&#xA;134 72 134 5 0 8 5 8 11 0 7 39 80 87 163 95 166 122 214 165 296 72 138 157&#xA;297 186 345 10 17 44 79 76 140 32 60 74 134 93 164 19 29 47 79 62 110 15 31&#xA;46 86 69 124 23 37 42 71 42 76 0 5 3 11 8 13 4 2 21 30 38 63 36 71 110 204&#xA;124 225 5 8 23 40 38 70 16 30 48 89 71 130 50 88 111 200 154 285 17 33 41&#xA;72 52 86 12 15 48 78 79 140 32 63 71 139 88 169 16 30 48 89 70 130 47 89 53&#xA;100 94 165 18 28 39 66 48 85 9 19 39 73 66 118 28 46 50 90 50 97 0 8 6 20&#xA;13 27 15 17 34 50 86 150 22 42 45 80 52 83 6 4 28 44 50 89 22 44 45 90 52&#xA;101 6 11 23 38 38 60 14 22 41 72 60 110 18 39 37 72 40 75 3 3 28 50 54 105&#xA;27 55 73 139 102 186 29 47 53 91 53 97 0 5 3 12 8 14 4 2 31 50 61 107 30 57&#xA;71 132 92 165 42 66 48 77 133 241 32 61 76 142 98 180 38 65 88 155 168 300&#xA;19 33 46 80 61 105 15 25 42 72 60 105 47 89 89 165 116 207 12 21 23 42 23&#xA;48 0 5 15 33 33 62 19 29 49 84 68 122 19 37 54 90 80 117 40 44 49 49 88 49&#xA;37 0 49 -6 75 -34z m6863 -5932 c8 -7 20 -17 27 -21 6 -5 20 -24 30 -43 20&#xA;-41 67 -123 84 -148 11 -16 30 -52 139 -262 65 -125 76 -143 91 -153 6 -4 12&#xA;-17 12 -28 0 -11 7 -22 15 -25 8 -4 15 -13 15 -20 0 -8 20 -49 45 -92 25 -42&#xA;45 -82 45 -89 0 -7 4 -13 10 -13 5 0 19 -19 30 -42 11 -24 26 -52 33 -62 50&#xA;-80 77 -126 73 -126 -3 0 3 -15 14 -32 11 -18 24 -43 29 -55 6 -12 22 -40 36&#xA;-62 14 -22 25 -47 25 -54 0 -8 8 -22 19 -31 10 -9 51 -82 90 -161 39 -79 76&#xA;-147 81 -150 6 -3 10 -13 10 -22 0 -9 6 -24 14 -32 19 -21 58 -90 101 -179 19&#xA;-40 44 -82 55 -94 11 -12 20 -29 20 -39 0 -9 7 -22 15 -29 8 -7 15 -16 15 -20&#xA;0 -4 18 -38 41 -75 52 -86 76 -129 106 -185 13 -25 32 -58 42 -75 11 -16 32&#xA;-55 47 -85 15 -30 37 -71 49 -90 11 -19 30 -55 40 -80 11 -25 28 -54 37 -64&#xA;10 -10 15 -22 13 -26 -3 -4 2 -13 10 -20 8 -7 15 -19 15 -26 0 -8 4 -14 9 -14&#xA;5 0 18 -22 28 -50 10 -27 29 -61 41 -75 12 -14 22 -30 22 -35 0 -6 5 -10 10&#xA;-10 6 0 10 -8 10 -18 0 -10 7 -28 16 -41 9 -12 34 -57 55 -98 56 -109 52 -164&#xA;-14 -200 -30 -17 -101 -18 -1127 -18 -1204 0 -1165 -2 -1238 61 -41 35 -60 64&#xA;-140 214 -24 47 -51 92 -58 101 -8 8 -14 20 -14 26 0 6 -6 16 -14 22 -8 7 -18&#xA;26 -21 42 -4 16 -11 29 -16 29 -5 0 -9 8 -9 19 0 10 -7 24 -15 31 -8 7 -15 16&#xA;-15 21 0 5 -11 27 -25 49 -28 45 -77 132 -113 202 -13 27 -28 50 -33 54 -5 3&#xA;-9 14 -9 25 0 10 -7 19 -15 19 -9 0 -15 9 -15 24 0 13 -4 26 -9 28 -5 2 -22&#xA;28 -38 58 -60 111 -68 125 -79 135 -7 5 -15 23 -18 38 -4 16 -16 38 -26 50&#xA;-11 11 -20 27 -20 34 0 18 -50 117 -61 121 -5 2 -9 9 -9 15 0 22 -45 97 -58&#xA;97 -7 0 -11 4 -8 9 3 5 -10 37 -29 72 -19 35 -42 79 -51 97 -9 19 -23 36 -31&#xA;39 -7 3 -13 11 -13 19 0 7 -10 30 -22 51 -11 21 -31 56 -42 78 -12 22 -23 42&#xA;-26 45 -8 8 -26 40 -64 114 -59 114 -41 198 52 247 26 13 58 31 72 40 14 9 65&#xA;37 114 64 49 26 114 64 145 85 31 20 90 59 131 85 78 49 297 194 315 208 6 4&#xA;66 47 135 96 69 50 132 96 140 103 8 8 35 29 60 48 25 18 50 39 55 45 13 15&#xA;190 163 236 198 19 14 53 44 75 65 58 54 101 73 148 66 22 -4 46 -13 53 -20z"/>
  </g>
</svg>
